<svg height="512pt" viewBox="0 0 512 512" width="512pt" xmlns="http://www.w3.org/2000/svg"><path d="m512 256c0 141.386719-114.613281 256-256 256s-256-114.613281-256-256 114.613281-256 256-256 256 114.613281 256 256zm0 0" fill="#ff328e"/><path d="m512 256c0-29.066406-4.855469-57-13.78125-83.042969l-79.589844-79.589843-73.496094 9.042968-81.253906 97.175782-97.015625-97.175782-73.492187-9.042968 9.042968 73.496093 103.015626 102.625-14.414063 17.230469-20.300781-20.300781-22.359375 22.363281 20.578125 20.578125-32.359375 32.359375c-11.347657-1.355469-23.1875 2.308594-31.898438 11.019531-15.074219 15.074219-15.074219 39.515625 0 54.585938 0 0 50.917969 50.917969 99.402344 99.402343 16.765625 3.457032 34.132813 5.273438 51.921875 5.273438 141.386719 0 256-114.613281 256-256zm0 0" fill="#c50a5b"/><path d="m170.691406 307.601562 33.703125 33.707032-49.980469 49.980468-33.707031-33.707031zm0 0" fill="#00ceb4"/><path d="m137.550781 374.441406 49.984375-49.984375 16.851563 16.851563-49.984375 49.984375zm0 0" fill="#008878"/><path d="m418.628906 93.367188-73.492187 9.046874-159.484375 190.722657 33.210937 33.210937 190.722657-159.484375zm0 0" fill="#fff5cb"/><path d="m409.585938 166.859375-184.3125 154.121094-6.414063 5.367187-16.601563-16.605468 216.371094-216.375zm0 0" fill="#ffe047"/><path d="m170.714844 266.414062 74.867187 74.867188-22.363281 22.359375-74.863281-74.863281zm0 0" fill="#00efd1"/><path d="m185.785156 326.210938 22.355469-22.359376 37.4375 37.433594-22.359375 22.359375zm0 0" fill="#00ceb4"/><path d="m159.257812 352.738281c-15.074218-15.074219-39.511718-15.074219-54.585937 0-15.074219 15.070313-15.074219 39.511719 0 54.582031 15.074219 15.074219 39.511719 15.074219 54.585937 0 15.074219-15.070312 15.074219-39.511718 0-54.582031zm0 0" fill="#00efd1"/><path d="m159.265625 407.324219c-15.078125 15.074219-39.515625 15.074219-54.589844 0l54.589844-54.589844c6.355469 6.359375 10.03125 14.390625 11.03125 22.671875 1.355469 11.355469-2.316406 23.199219-11.03125 31.917969zm0 0" fill="#00ceb4"/><path d="m391.300781 357.589844-33.707031 33.703125-49.980469-49.980469 33.703125-33.707031zm0 0" fill="#ff9a00"/><path d="m307.605469 341.308594 16.847656-16.851563 49.988281 49.988281-16.851562 16.847657zm0 0" fill="#e67500"/><path d="m93.371094 93.367188 73.492187 9.046874 159.484375 190.722657-33.210937 33.210937-190.722657-159.484375zm0 0" fill="#fff"/><path d="m102.414062 166.859375 184.3125 154.121094 6.414063 5.367187 16.601563-16.605468-216.371094-216.375zm0 0" fill="#fff5cb"/><path d="m363.648438 288.78125-74.863282 74.863281-22.359375-22.359375 74.863281-74.867187zm0 0" fill="#ffb84d"/><path d="m266.414062 341.289062 37.4375-37.433593 22.355469 22.355469-37.433593 37.433593zm0 0" fill="#ff9a00"/><path d="m407.320312 352.738281c-15.074218-15.074219-39.511718-15.074219-54.585937 0s-15.074219 39.511719 0 54.585938 39.511719 15.074219 54.585937 0c15.074219-15.074219 15.074219-39.511719 0-54.585938zm0 0" fill="#ffb84d"/><path d="m352.734375 407.324219c15.078125 15.074219 39.515625 15.074219 54.589844 0l-54.589844-54.589844c-6.355469 6.359375-10.03125 14.390625-11.03125 22.671875-1.355469 11.355469 2.316406 23.199219 11.03125 31.917969zm0 0" fill="#ff9a00"/></svg>